<svg width="121" height="124" viewBox="0 0 121 124" fill="none" xmlns="http://www.w3.org/2000/svg">
<g clip-path="url(#clip0_1761_76)">
<path d="M2.35155 29.8316C2.35155 29.8316 0.313765 9.11571 11.3375 3.56282C22.3613 -1.99007 31.1624 17.5693 31.1624 17.5693C31.1624 17.5693 39.5424 35.6703 66.5908 25.4905C93.6393 15.3108 113.983 28.3775 117.185 55.8608C120.386 83.3441 120.463 110.946 104.339 117.965C92.6455 123.061 59.7415 127.056 30.4721 97.4999C17.5716 84.4708 8.92634 67.8368 5.1965 49.8846C3.64929 42.381 2.27001 34.3865 2.35155 29.8316Z" fill="white" stroke="#532A9F" stroke-width="4" stroke-miterlimit="10" stroke-linecap="round" stroke-linejoin="round"/>
<path d="M18.3522 17.7669C17.6713 16.7437 16.0999 17.0142 15.7921 18.2027C13.0191 29.0203 6.4868 66.6326 40.6733 93.0378C80.978 124.173 102.302 108.088 102.302 108.088C102.302 108.088 114.961 104.433 107.672 59.5112C107.369 57.6522 107.083 55.7881 106.823 53.9231C105.918 47.4852 100.584 24.6751 70.9554 33.8871C38.8613 43.8616 26.5952 30.1184 18.3522 17.7669Z" fill="white" stroke="#532A9F" stroke-width="4" stroke-miterlimit="10" stroke-linecap="round" stroke-linejoin="round"/>
<path d="M87.2199 102.388C96.0701 99.8321 101.173 90.5861 98.6177 81.7359C96.0624 72.8857 86.8163 67.7827 77.9661 70.3381C69.1159 72.8934 64.0129 82.1395 66.5683 90.9897C69.1236 99.8399 78.3697 104.943 87.2199 102.388Z" fill="white" stroke="#532A9F" stroke-width="4" stroke-miterlimit="10" stroke-linecap="round" stroke-linejoin="round"/>
<path d="M74.9905 59.6824C70.3305 57.5077 69.5473 51.2055 73.4864 47.9067C78.0204 44.1076 85.6536 38.7626 90.5251 45.6098C97.6122 55.5776 86.3247 64.9669 74.9905 59.6824Z" fill="white" stroke="#532A9F" stroke-width="4" stroke-miterlimit="10" stroke-linecap="round" stroke-linejoin="round"/>
<path d="M46.9862 48.4927C53.7099 45.0978 58.891 50.2377 60.2695 57.6384C61.4549 64.0204 60.6532 72.9101 48.6537 76.3748C29.018 82.0443 22.7402 45.5712 22.7402 45.5712C21.4941 33.879 30.6951 46.112 30.6951 46.112C30.6951 46.112 35.9108 54.0858 46.9862 48.4927Z" fill="white" stroke="#532A9F" stroke-width="4" stroke-miterlimit="10" stroke-linecap="round" stroke-linejoin="round"/>
</g>
<defs>
<clipPath id="clip0_1761_76">
<rect width="121" height="124" fill="white"/>
</clipPath>
</defs>
</svg>
