<svg width="318" height="143" viewBox="0 0 318 143" fill="none" xmlns="http://www.w3.org/2000/svg">
<path d="M9.23271 141.503C9.74982 142.479 10.9603 142.851 11.9363 142.334L27.8419 133.907C28.818 133.39 29.19 132.179 28.6729 131.203C28.1558 130.227 26.9454 129.855 25.9693 130.372L11.831 137.863L4.34047 123.724C3.82336 122.748 2.61292 122.376 1.63687 122.893C0.660821 123.411 0.288779 124.621 0.80589 125.597L9.23271 141.503ZM317.957 35.81C278.565 14.3542 215.83 -6.27452 155.66 1.78409C125.534 5.81883 96.0245 17.0508 70.4569 38.9924C44.8905 60.933 23.3786 93.4849 9.08826 139.979L12.9117 141.154C27.0214 95.2479 48.1678 63.3915 73.0619 42.0279C97.9547 20.6654 126.708 9.69729 156.19 5.74869C215.237 -2.15936 277.102 18.1119 316.043 39.3228L317.957 35.81Z" fill="#3D23B3"/>
</svg>
